PathFileType	4	(X/Y/Z)	RBDS019\RBDS019runT35.trc
DataRate	CameraRate	NumFrames	NumMarkers	Units	OrigDataRate	OrigDataStartFrame	OrigNumFrames
150.000000	150.000000	5	33	mm	150.000000	562	4500
Frame#	Time	L.ASIS			L.Heel.Bottom			L.Heel.Lateral			L.Heel.Top			L.Iliac.Crest			L.MT1			L.MT5			L.PSIS			L.Shank.Bottom.Lateral			L.Shank.Bottom.Medial			L.Shank.Top.Lateral			L.Shank.Top.Medial			L.Thigh.Bottom.Lateral			L.Thigh.Bottom.Medial			L.Thigh.Top.Lateral			L.Thigh.Top.Medial			R.ASIS			R.ASY			R.Heel.Bottom			R.Heel.Lateral			R.Heel.Top			R.Iliac.Crest			R.MT1			R.MT5			R.PSIS			R.Shank.Bottom.Lateral			R.Shank.Bottom.Medial			R.Shank.Top.Lateral			R.Shank.Top.Medial			R.Thigh.Bottom.Lateral			R.Thigh.Bottom.Medial			R.Thigh.Top.Lateral			R.Thigh.Top.Medial			
		X1	Y1	Z1	X2	Y2	Z2	X3	Y3	Z3	X4	Y4	Z4	X5	Y5	Z5	X6	Y6	Z6	X7	Y7	Z7	X8	Y8	Z8	X9	Y9	Z9	X10	Y10	Z10	X11	Y11	Z11	X12	Y12	Z12	X13	Y13	Z13	X14	Y14	Z14	X15	Y15	Z15	X16	Y16	Z16	X17	Y17	Z17	X18	Y18	Z18	X19	Y19	Z19	X20	Y20	Z20	X21	Y21	Z21	X22	Y22	Z22	X23	Y23	Z23	X24	Y24	Z24	X25	Y25	Z25	X26	Y26	Z26	X27	Y27	Z27	X28	Y28	Z28	X29	Y29	Z29	X30	Y30	Z30	X31	Y31	Z31	X32	Y32	Z32	X33	Y33	Z33	

563	3.746666666666667	2338.258899333438	957.8596972623051	923.6967340468484	1713.674957196522	273.9045641550651	996.0625726756577	1737.328742866266	251.5800470635468	950.7659642244819	1759.110992787033	286.8764905673652	988.0649881225999	2314.047442475724	1029.346041762533	896.2704584185325	1820.312447011102	100.6879813167815	1029.928292852075	1784.979975850971	115.4347717877006	930.4487681714035	2174.114865918687	1014.481457726248	978.5813709437044	1844.35951254167	303.4879075072715	928.3426911954738	1819.234360387347	325.5643199411364	967.2751660986773	1886.47186237403	371.0136319360045	913.3208986616996	1864.649104230966	395.787834679255	954.8625988390858	2114.803693335468	637.9829027165759	886.8605132373373	2063.829321266383	667.0688328063416	931.5281319987278	2156.846820238517	737.4223823149833	869.3058812529147	2109.176518957463	765.4044506326937	913.7232735712369	2322.599908373548	989.8480257325895	1138.679229041661	-11166601.57337149	7399381.468994414	-20792027.68279823	2284.486166822801	179.8768294136573	1069.795358749019	2313.31475849343	191.0134286933356	1110.176495463958	2304.775265665941	220.6434318424671	1066.699625338905	2261.140538484691	1054.687119296299	1168.879351789301	2481.496617720004	147.196584862739	1040.103564681337	2449.984897994811	147.3193019094492	1142.273407605648	2166.966485801442	1020.906614582302	1076.149151389589	2388.267219703111	288.6231219098368	1125.932200434664	2350.25093912513	304.313566466466	1088.372049554083	2402.379741108832	367.3766534826075	1141.091135984835	2367.1951137935	381.3739285646956	1102.307544880422	2458.845648104506	664.7129927378884	1168.921807007676	2406.809381672557	625.890212818953	1139.057245360049	2384.6331222896	742.7002487035759	1195.390627075446	2334.576829527882	703.3623225682931	1170.057759920282	
564	3.753333333333333	2339.759534914057	959.9121766499835	925.3640943922355	1706.313801907945	292.9662855532331	999.2031106331369	1727.812459080913	269.1346076816043	953.5669489373398	1752.418801456375	303.2263526516593	990.3793385483333	2315.72809042511	1031.69873370995	897.6458468708979	1803.894981213488	113.4585614129074	1031.602873727305	1767.35226140399	129.8687381229725	932.9860683872639	2175.635602218264	1017.408038466051	978.540287930048	1836.563618196738	315.0226220336417	929.8786568191307	1812.753547815583	338.0019597720881	969.0843360115821	1881.222124642901	380.7573393165889	914.5372229817468	1860.763150427405	406.3316011236327	956.2608257034423	2117.121382759316	639.3559492393579	887.1842334707595	2065.681175160359	668.3381401549636	931.2237519661044	2159.028894926642	738.8239020960086	869.6981476653207	2110.776071385005	766.749540548336	913.3917860051264	2322.728953374173	991.2820757864775	1139.670902077879	-11398024.31898391	7552541.571665818	-21222688.87015565	2307.73451051613	160.9207453007679	1069.141581877387	2336.243803549375	173.6703127059823	1109.393499867163	2324.92592519349	203.0724148591256	1066.501265115958	2261.251123677861	1056.281988602667	1169.962683402658	2505.835582299737	143.3125317612356	1036.719132724793	2475.879205177042	139.6511334620721	1139.329168182379	2167.972894905226	1023.798902683803	1076.432973353338	2403.687351532318	276.6667739124837	1125.361773042908	2364.625329295746	290.1305108092243	1088.1776767502	2412.656930245781	355.9330725355503	1141.220836055227	2376.494325308715	367.9461458084751	1102.742933750329	2455.409514449882	662.3576606165022	1169.370451348989	2402.065337463756	623.9203180915925	1141.048312241994	2383.41637064166	742.2995772667234	1195.568069939468	2332.104842828348	703.6976557032432	1171.415544619606	
565	3.76	2341.123320694841	961.8550438895957	926.959309649733	1699.615748711339	312.1733755278059	1002.60181163143	1718.940977127564	287.0327842092753	956.6527995484523	1746.167067020573	319.8676710269725	992.9598207436961	2316.73494215604	1033.687257749036	898.7770962159639	1788.464719254461	127.2851320325216	1033.63909091366	1750.712136279697	145.3414027516611	935.8034372261775	2176.922505755665	1019.867605261117	978.5632068860384	1829.409216761976	326.9526887655801	931.6941613598535	1807.021423984839	350.9483956202505	971.1064034427006	1876.761345852825	390.6387511344617	915.8995491376153	1857.819284206948	417.1095806215924	957.7713790562593	2120.435496909689	639.7190079909756	887.4463970904575	2068.364030002696	668.4969456995325	930.7361103059715	2161.882487677078	739.3460970305335	869.9601889788552	2112.848578527218	767.1115681957643	912.7761660759013	2322.656153860597	992.3385129344409	1140.78805665593	-11632622.07733527	7707801.019565988	-21659255.8043291	2330.491562557321	143.0801246904695	1068.343047692132	2358.660245181528	157.310885681579	1108.452986846314	2344.488047674555	186.3621547964459	1066.270343945576	2261.246915213272	1057.269179385027	1171.21858436825	2528.472939256303	140.69696009194	1032.989422897183	2500.561169923407	133.1217045717441	1136.031941656542	2168.807901817902	1026.167056478822	1076.821992977262	2418.382666786114	265.2446899437394	1124.750257545491	2378.322961549671	276.4944580136198	1088.05418647825	2422.334290886615	344.6575394787703	1141.462193418342	2385.20709181607	354.7128346843366	1103.415400086328	2451.03879875788	658.8663531744271	1170.031297175198	2396.531334421855	621.2557330251669	1142.67542702399	2381.426179476055	740.8742042051666	1195.946323348563	2328.939483939341	703.3432002227196	1172.513741827287	
566	3.766666666666667	2342.374834439073	963.6351118859797	928.4478341912693	1693.759975974391	331.4411343094944	1006.154248956406	1710.930834233789	305.1992080921767	959.9238929364669	1740.549791524535	336.7285617936356	995.7246344628429	2317.14865710917	1035.341074144533	899.6833444419306	1774.213854056887	142.0127158681242	1035.922933967223	1735.318005480469	161.7239909149315	938.7793688945733	2177.991276218213	1021.815664628321	978.6624421270179	1823.069128956027	339.2144787618539	933.7257758867922	1802.182581146012	364.2975411637061	973.2742281483369	1873.192160227504	400.6232850736878	917.3900911167825	1855.878745570622	428.0479770857373	959.3653743693134	2124.572879278953	639.1757047042204	887.6808839125256	2071.764430913069	667.6699635531007	930.1675707846698	2165.291375815072	739.0750774641341	870.136100109301	2115.352246490987	766.5917109048564	912.0035382194881	2322.387035969877	993.0447576871115	1141.948769634888	-11870416.48006959	7865174.104053333	-22101768.70312716	2352.377487986603	126.4766733923837	1067.398966505792	2380.17487807613	142.0607645319758	1107.36355688192	2363.124756126778	170.6323817961906	1066.000154379837	2261.134083827714	1057.708788399308	1172.565768666924	2549.108275996974	139.2645803045332	1029.088513562961	2523.650739262294	127.7427933351706	1132.508979656269	2169.48473121897	1027.964627965486	1077.306752087044	2432.100277146339	254.499591665557	1124.120918605197	2391.095079945899	263.5525752011898	1087.992279204027	2431.227704211489	333.7351123375952	1141.789222849063	2393.15999490568	341.8578191513992	1104.269964050736	2445.752600802516	654.3764407871297	1170.862624077021	2390.279111038609	618.0126151869666	1143.849607093958	2378.625817481818	738.4904378943968	1196.497185168722	2325.081529641058	702.3310623316801	1173.303154534477	
567	3.773333333333333	2343.537254805874	965.1907005252975	929.8075054209322	1688.968810074894	350.6885694159877	1009.780886593337	1704.029701673698	323.5638700872607	963.2955810036528	1735.808467379769	353.7233360663007	998.609831296568	2317.063219344386	1036.677397957391	900.39383743833	1761.301625383723	157.4638064228203	1038.312516861669	1721.399534517583	178.8911363684346	941.7823589350288	2178.860695546763	1023.206417161728	978.8436258301801	1817.735660090724	351.7157712053204	935.9060223739647	1798.402673830693	377.912879432344	975.5222839344103	1870.642205074345	410.648032561644	918.9899023473903	1855.026512851979	439.0433929852436	961.0159717008287	2129.357848166205	637.8433849252312	887.9151545333134	2075.769672731924	665.9818172523992	929.6195415779349	2169.124750248032	738.1112169250479	870.2735979994004	2118.233910046907	765.2935248265741	911.2099743418189	2321.931303402056	993.4135806100178	1143.082859271281	-12111429.15883093	8024675.116486263	-22550267.7843584	2372.973354471326	111.1895444172379	1066.329686241125	2400.361010185901	128.0024806436474	1106.154945717321	2380.473255908145	155.9721980981812	1065.697496012782	2260.91873775983	1057.66680692196	1173.914402862284	2567.464786628581	138.8435932690843	1025.204948169379	2544.758901162318	123.4423905543449	1128.908674756472	2170.015820626075	1029.14388462404	1077.871081846333	2444.561672550158	244.5300156272223	1123.501748264672	2402.67813996346	251.4189996640692	1087.979309827145	2439.128220290584	323.3203631041945	1142.168724105075	2400.166023737874	329.5445045977203	1105.233415258489	2439.618184851471	649.0629358235803	1171.808929162394	2383.407829419404	614.3075148749007	1144.528149204524	2375.027244113577	735.2551826819856	1197.17116983475	2320.567453442047	700.7121926288293	1173.758690987415	
